<mxfile host="65bd71144e">
    <diagram name="Page-1" id="5d7acffa-a066-3a61-03fe-96351882024d">
        <mxGraphModel dx="2093" dy="1187" grid="1" gridSize="10" guides="1" tooltips="1" connect="1" arrows="1" fold="1" page="1" pageScale="1" pageWidth="1100" pageHeight="850" background="none" math="0" shadow="0">
            <root>
                <mxCell id="0"/>
                <mxCell id="1" parent="0"/>
                <mxCell id="t5zFvqTxYrGrfH3YHS5j-99" value="Reference Design Interfaces" style="rounded=1;arcSize=10;whiteSpace=wrap;html=1;align=center;dashed=1;horizontal=1;verticalAlign=top;fontSize=16;" parent="1" vertex="1">
                    <mxGeometry x="210" y="450" width="800" height="510" as="geometry"/>
                </mxCell>
                <mxCell id="t5zFvqTxYrGrfH3YHS5j-69" value="ASR Engine Placeholder&amp;nbsp;" style="rounded=1;arcSize=24;whiteSpace=wrap;html=1;align=center;dashed=1;horizontal=1;verticalAlign=top;fontSize=16;" parent="1" vertex="1">
                    <mxGeometry x="540" y="253" width="260" height="172" as="geometry"/>
                </mxCell>
                <mxCell id="t5zFvqTxYrGrfH3YHS5j-65" value="XCORE-VOICE DSP Blocks" style="rounded=1;arcSize=24;whiteSpace=wrap;html=1;align=center;dashed=1;horizontal=1;verticalAlign=top;fontSize=16;" parent="1" vertex="1">
                    <mxGeometry x="430" y="60" width="650" height="172" as="geometry"/>
                </mxCell>
                <mxCell id="21ea969265ad0168-6" value="IC + VAD" style="swimlane;html=1;fontStyle=0;childLayout=stackLayout;horizontal=1;startSize=26;fillColor=none;horizontalStack=0;resizeParent=1;resizeLast=0;collapsible=1;marginBottom=0;swimlaneFillColor=none;align=center;rounded=1;shadow=0;comic=0;labelBackgroundColor=none;strokeWidth=1;fontFamily=Verdana;fontSize=12;strokeColor=#b85450;" parent="1" vertex="1">
                    <mxGeometry x="450" y="100" width="160" height="110" as="geometry"/>
                </mxCell>
                <mxCell id="21ea969265ad0168-7" value="Mic 0" style="text;html=1;strokeColor=none;fillColor=none;spacingLeft=4;spacingRight=4;whiteSpace=wrap;overflow=hidden;rotatable=0;points=[[0,0.5],[1,0.5]];portConstraint=eastwest;" parent="21ea969265ad0168-6" vertex="1">
                    <mxGeometry y="26" width="160" height="26" as="geometry"/>
                </mxCell>
                <mxCell id="21ea969265ad0168-8" value="Mic 1" style="text;html=1;strokeColor=none;fillColor=none;spacingLeft=4;spacingRight=4;whiteSpace=wrap;overflow=hidden;rotatable=0;points=[[0,0.5],[1,0.5]];portConstraint=eastwest;" parent="21ea969265ad0168-6" vertex="1">
                    <mxGeometry y="52" width="160" height="26" as="geometry"/>
                </mxCell>
                <mxCell id="21ea969265ad0168-9" value="ASR output" style="text;html=1;strokeColor=none;fillColor=none;spacingLeft=4;spacingRight=4;whiteSpace=wrap;overflow=hidden;rotatable=0;points=[[0,0.5],[1,0.5]];portConstraint=eastwest;" parent="21ea969265ad0168-6" vertex="1">
                    <mxGeometry y="78" width="160" height="26" as="geometry"/>
                </mxCell>
                <mxCell id="21ea969265ad0168-10" value="Mic Array Driver" style="swimlane;html=1;fontStyle=0;childLayout=stackLayout;horizontal=1;startSize=26;fillColor=none;horizontalStack=0;resizeParent=1;resizeLast=0;collapsible=1;marginBottom=0;swimlaneFillColor=none;align=center;rounded=1;shadow=0;comic=0;labelBackgroundColor=none;strokeWidth=1;fontFamily=Verdana;fontSize=12;strokeColor=#b85450;" parent="1" vertex="1">
                    <mxGeometry x="250" y="100" width="160" height="86" as="geometry"/>
                </mxCell>
                <mxCell id="21ea969265ad0168-11" value="Mic 0" style="text;html=1;strokeColor=none;fillColor=none;spacingLeft=4;spacingRight=4;whiteSpace=wrap;overflow=hidden;rotatable=0;points=[[0,0.5],[1,0.5]];portConstraint=eastwest;" parent="21ea969265ad0168-10" vertex="1">
                    <mxGeometry y="26" width="160" height="26" as="geometry"/>
                </mxCell>
                <mxCell id="t5zFvqTxYrGrfH3YHS5j-6" value="Mic 1" style="text;html=1;strokeColor=none;fillColor=none;spacingLeft=4;spacingRight=4;whiteSpace=wrap;overflow=hidden;rotatable=0;points=[[0,0.5],[1,0.5]];portConstraint=eastwest;" parent="21ea969265ad0168-10" vertex="1">
                    <mxGeometry y="52" width="160" height="26" as="geometry"/>
                </mxCell>
                <mxCell id="t5zFvqTxYrGrfH3YHS5j-15" value="" style="edgeStyle=orthogonalEdgeStyle;rounded=0;orthogonalLoop=1;jettySize=auto;html=1;" parent="1" source="t5zFvqTxYrGrfH3YHS5j-8" edge="1">
                    <mxGeometry relative="1" as="geometry">
                        <mxPoint x="250" y="115" as="targetPoint"/>
                    </mxGeometry>
                </mxCell>
                <mxCell id="t5zFvqTxYrGrfH3YHS5j-8" value="PDM Mics" style="html=1;rounded=0;shadow=0;comic=0;labelBackgroundColor=none;strokeWidth=2;fontFamily=Verdana;fontSize=12;align=center;shape=mxgraph.ios7ui.horLines;" parent="1" vertex="1">
                    <mxGeometry x="60" y="90" width="135" height="50" as="geometry"/>
                </mxCell>
                <mxCell id="t5zFvqTxYrGrfH3YHS5j-16" value="NS" style="swimlane;html=1;fontStyle=0;childLayout=stackLayout;horizontal=1;startSize=26;fillColor=none;horizontalStack=0;resizeParent=1;resizeLast=0;collapsible=1;marginBottom=0;swimlaneFillColor=none;align=center;rounded=1;shadow=0;comic=0;labelBackgroundColor=none;strokeWidth=1;fontFamily=Verdana;fontSize=12;strokeColor=#b85450;" parent="1" vertex="1">
                    <mxGeometry x="660" y="100" width="160" height="80" as="geometry"/>
                </mxCell>
                <mxCell id="t5zFvqTxYrGrfH3YHS5j-17" value="Input" style="text;html=1;strokeColor=none;fillColor=none;spacingLeft=4;spacingRight=4;whiteSpace=wrap;overflow=hidden;rotatable=0;points=[[0,0.5],[1,0.5]];portConstraint=eastwest;" parent="t5zFvqTxYrGrfH3YHS5j-16" vertex="1">
                    <mxGeometry y="26" width="160" height="26" as="geometry"/>
                </mxCell>
                <mxCell id="t5zFvqTxYrGrfH3YHS5j-18" value="Output" style="text;html=1;strokeColor=none;fillColor=none;spacingLeft=4;spacingRight=4;whiteSpace=wrap;overflow=hidden;rotatable=0;points=[[0,0.5],[1,0.5]];portConstraint=eastwest;" parent="t5zFvqTxYrGrfH3YHS5j-16" vertex="1">
                    <mxGeometry y="52" width="160" height="26" as="geometry"/>
                </mxCell>
                <mxCell id="t5zFvqTxYrGrfH3YHS5j-20" value="AGC" style="swimlane;html=1;fontStyle=0;childLayout=stackLayout;horizontal=1;startSize=26;fillColor=none;horizontalStack=0;resizeParent=1;resizeLast=0;collapsible=1;marginBottom=0;swimlaneFillColor=none;align=center;rounded=1;shadow=0;comic=0;labelBackgroundColor=none;strokeWidth=1;fontFamily=Verdana;fontSize=12;strokeColor=#b85450;" parent="1" vertex="1">
                    <mxGeometry x="870" y="100" width="160" height="80" as="geometry"/>
                </mxCell>
                <mxCell id="t5zFvqTxYrGrfH3YHS5j-21" value="Input" style="text;html=1;strokeColor=none;fillColor=none;spacingLeft=4;spacingRight=4;whiteSpace=wrap;overflow=hidden;rotatable=0;points=[[0,0.5],[1,0.5]];portConstraint=eastwest;" parent="t5zFvqTxYrGrfH3YHS5j-20" vertex="1">
                    <mxGeometry y="26" width="160" height="26" as="geometry"/>
                </mxCell>
                <mxCell id="t5zFvqTxYrGrfH3YHS5j-22" value="Output" style="text;html=1;strokeColor=none;fillColor=none;spacingLeft=4;spacingRight=4;whiteSpace=wrap;overflow=hidden;rotatable=0;points=[[0,0.5],[1,0.5]];portConstraint=eastwest;" parent="t5zFvqTxYrGrfH3YHS5j-20" vertex="1">
                    <mxGeometry y="52" width="160" height="26" as="geometry"/>
                </mxCell>
                <mxCell id="t5zFvqTxYrGrfH3YHS5j-23" value="ASR Engine" style="swimlane;html=1;fontStyle=0;childLayout=stackLayout;horizontal=1;startSize=26;fillColor=none;horizontalStack=0;resizeParent=1;resizeLast=0;collapsible=1;marginBottom=0;swimlaneFillColor=none;align=center;rounded=1;shadow=0;comic=0;labelBackgroundColor=none;strokeWidth=1;fontFamily=Verdana;fontSize=12;strokeColor=#6c8ebf;" parent="1" vertex="1">
                    <mxGeometry x="590" y="299" width="160" height="110" as="geometry"/>
                </mxCell>
                <mxCell id="t5zFvqTxYrGrfH3YHS5j-24" value="Input Audio" style="text;html=1;strokeColor=none;fillColor=none;spacingLeft=4;spacingRight=4;whiteSpace=wrap;overflow=hidden;rotatable=0;points=[[0,0.5],[1,0.5]];portConstraint=eastwest;" parent="t5zFvqTxYrGrfH3YHS5j-23" vertex="1">
                    <mxGeometry y="26" width="160" height="26" as="geometry"/>
                </mxCell>
                <mxCell id="t5zFvqTxYrGrfH3YHS5j-25" value="Model" style="text;html=1;strokeColor=none;fillColor=none;spacingLeft=4;spacingRight=4;whiteSpace=wrap;overflow=hidden;rotatable=0;points=[[0,0.5],[1,0.5]];portConstraint=eastwest;" parent="t5zFvqTxYrGrfH3YHS5j-23" vertex="1">
                    <mxGeometry y="52" width="160" height="26" as="geometry"/>
                </mxCell>
                <mxCell id="t5zFvqTxYrGrfH3YHS5j-71" value="Intent" style="text;html=1;strokeColor=none;fillColor=none;spacingLeft=4;spacingRight=4;whiteSpace=wrap;overflow=hidden;rotatable=0;points=[[0,0.5],[1,0.5]];portConstraint=eastwest;" parent="t5zFvqTxYrGrfH3YHS5j-23" vertex="1">
                    <mxGeometry y="78" width="160" height="26" as="geometry"/>
                </mxCell>
                <mxCell id="t5zFvqTxYrGrfH3YHS5j-26" value="" style="edgeStyle=orthogonalEdgeStyle;rounded=0;orthogonalLoop=1;jettySize=auto;html=1;" parent="1" source="21ea969265ad0168-11" target="21ea969265ad0168-7" edge="1">
                    <mxGeometry relative="1" as="geometry"/>
                </mxCell>
                <mxCell id="t5zFvqTxYrGrfH3YHS5j-27" value="" style="edgeStyle=orthogonalEdgeStyle;rounded=0;orthogonalLoop=1;jettySize=auto;html=1;entryX=0;entryY=0.5;entryDx=0;entryDy=0;" parent="1" source="t5zFvqTxYrGrfH3YHS5j-6" target="21ea969265ad0168-8" edge="1">
                    <mxGeometry relative="1" as="geometry"/>
                </mxCell>
                <mxCell id="t5zFvqTxYrGrfH3YHS5j-28" value="" style="edgeStyle=orthogonalEdgeStyle;rounded=0;orthogonalLoop=1;jettySize=auto;html=1;entryX=0;entryY=0.5;entryDx=0;entryDy=0;" parent="1" source="21ea969265ad0168-9" target="t5zFvqTxYrGrfH3YHS5j-17" edge="1">
                    <mxGeometry relative="1" as="geometry"/>
                </mxCell>
                <mxCell id="t5zFvqTxYrGrfH3YHS5j-29" value="" style="edgeStyle=orthogonalEdgeStyle;rounded=0;orthogonalLoop=1;jettySize=auto;html=1;entryX=0;entryY=0.5;entryDx=0;entryDy=0;" parent="1" source="t5zFvqTxYrGrfH3YHS5j-18" target="t5zFvqTxYrGrfH3YHS5j-21" edge="1">
                    <mxGeometry relative="1" as="geometry"/>
                </mxCell>
                <mxCell id="t5zFvqTxYrGrfH3YHS5j-33" value="" style="edgeStyle=orthogonalEdgeStyle;rounded=0;orthogonalLoop=1;jettySize=auto;html=1;entryX=1;entryY=0.5;entryDx=0;entryDy=0;exitX=1;exitY=0.5;exitDx=0;exitDy=0;" parent="1" source="t5zFvqTxYrGrfH3YHS5j-22" target="t5zFvqTxYrGrfH3YHS5j-24" edge="1">
                    <mxGeometry relative="1" as="geometry">
                        <mxPoint x="990" y="226" as="sourcePoint"/>
                        <mxPoint x="1040" y="200" as="targetPoint"/>
                    </mxGeometry>
                </mxCell>
                <mxCell id="t5zFvqTxYrGrfH3YHS5j-39" value="" style="edgeStyle=orthogonalEdgeStyle;rounded=0;orthogonalLoop=1;jettySize=auto;html=1;" parent="1" source="t5zFvqTxYrGrfH3YHS5j-35" target="t5zFvqTxYrGrfH3YHS5j-38" edge="1">
                    <mxGeometry relative="1" as="geometry"/>
                </mxCell>
                <mxCell id="t5zFvqTxYrGrfH3YHS5j-35" value="Heartbeat" style="swimlane;html=1;fontStyle=0;childLayout=stackLayout;horizontal=1;startSize=26;fillColor=none;horizontalStack=0;resizeParent=1;resizeLast=0;collapsible=1;marginBottom=0;swimlaneFillColor=none;align=center;rounded=1;shadow=0;comic=0;labelBackgroundColor=none;strokeWidth=1;fontFamily=Verdana;fontSize=12;strokeColor=#6c8ebf;" parent="1" vertex="1">
                    <mxGeometry x="250" y="215" width="160" height="60" as="geometry"/>
                </mxCell>
                <mxCell id="t5zFvqTxYrGrfH3YHS5j-38" value="Green LED" style="html=1;rounded=0;shadow=0;comic=0;labelBackgroundColor=none;strokeWidth=2;fontFamily=Verdana;fontSize=12;align=center;shape=mxgraph.ios7ui.horLines;" parent="1" vertex="1">
                    <mxGeometry x="60" y="220" width="135" height="50" as="geometry"/>
                </mxCell>
                <mxCell id="t5zFvqTxYrGrfH3YHS5j-41" value="UART Peripheral" style="swimlane;html=1;fontStyle=0;childLayout=stackLayout;horizontal=1;startSize=26;fillColor=none;horizontalStack=0;resizeParent=1;resizeLast=0;collapsible=1;marginBottom=0;swimlaneFillColor=none;align=center;rounded=1;shadow=0;comic=0;labelBackgroundColor=none;strokeWidth=1;fontFamily=Verdana;fontSize=12;strokeColor=#6c8ebf;" parent="1" vertex="1">
                    <mxGeometry x="250" y="880" width="160" height="60" as="geometry"/>
                </mxCell>
                <mxCell id="t5zFvqTxYrGrfH3YHS5j-57" value="Intent" style="text;html=1;strokeColor=none;fillColor=none;spacingLeft=4;spacingRight=4;whiteSpace=wrap;overflow=hidden;rotatable=0;points=[[0,0.5],[1,0.5]];portConstraint=eastwest;" parent="t5zFvqTxYrGrfH3YHS5j-41" vertex="1">
                    <mxGeometry y="26" width="160" height="26" as="geometry"/>
                </mxCell>
                <mxCell id="t5zFvqTxYrGrfH3YHS5j-96" style="edgeStyle=orthogonalEdgeStyle;rounded=0;orthogonalLoop=1;jettySize=auto;html=1;entryX=1;entryY=0.5;entryDx=0;entryDy=0;fontSize=16;dashed=1;" parent="1" source="t5zFvqTxYrGrfH3YHS5j-43" target="t5zFvqTxYrGrfH3YHS5j-25" edge="1">
                    <mxGeometry relative="1" as="geometry"/>
                </mxCell>
                <mxCell id="t5zFvqTxYrGrfH3YHS5j-43" value="QSPI Flash Peripheral" style="swimlane;html=1;fontStyle=0;childLayout=stackLayout;horizontal=1;startSize=26;fillColor=none;horizontalStack=0;resizeParent=1;resizeLast=0;collapsible=1;marginBottom=0;swimlaneFillColor=none;align=center;rounded=1;shadow=0;comic=0;labelBackgroundColor=none;strokeWidth=1;fontFamily=Verdana;fontSize=12;strokeColor=#6c8ebf;" parent="1" vertex="1">
                    <mxGeometry x="820" y="679" width="160" height="60" as="geometry"/>
                </mxCell>
                <mxCell id="t5zFvqTxYrGrfH3YHS5j-44" value="DAC" style="html=1;rounded=0;shadow=0;comic=0;labelBackgroundColor=none;strokeWidth=2;fontFamily=Verdana;fontSize=12;align=center;shape=mxgraph.ios7ui.horLines;" parent="1" vertex="1">
                    <mxGeometry x="60" y="660" width="135" height="50" as="geometry"/>
                </mxCell>
                <mxCell id="t5zFvqTxYrGrfH3YHS5j-46" value="Keyword Peripheral &lt;br&gt;IO Message" style="html=1;rounded=0;shadow=0;comic=0;labelBackgroundColor=none;strokeWidth=2;fontFamily=Verdana;fontSize=12;align=center;shape=mxgraph.ios7ui.horLines;" parent="1" vertex="1">
                    <mxGeometry x="60" y="850" width="135" height="50" as="geometry"/>
                </mxCell>
                <mxCell id="t5zFvqTxYrGrfH3YHS5j-48" value="I2C Peripheral" style="swimlane;html=1;fontStyle=0;childLayout=stackLayout;horizontal=1;startSize=26;fillColor=none;horizontalStack=0;resizeParent=1;resizeLast=0;collapsible=1;marginBottom=0;swimlaneFillColor=none;align=center;rounded=1;shadow=0;comic=0;labelBackgroundColor=none;strokeWidth=1;fontFamily=Verdana;fontSize=12;strokeColor=#6c8ebf;" parent="1" vertex="1">
                    <mxGeometry x="250" y="730" width="160" height="110" as="geometry"/>
                </mxCell>
                <mxCell id="t5zFvqTxYrGrfH3YHS5j-49" value="DAC Init" style="text;html=1;strokeColor=none;fillColor=none;spacingLeft=4;spacingRight=4;whiteSpace=wrap;overflow=hidden;rotatable=0;points=[[0,0.5],[1,0.5]];portConstraint=eastwest;" parent="t5zFvqTxYrGrfH3YHS5j-48" vertex="1">
                    <mxGeometry y="26" width="160" height="26" as="geometry"/>
                </mxCell>
                <mxCell id="t5zFvqTxYrGrfH3YHS5j-50" value="IO Expander Init" style="text;html=1;strokeColor=none;fillColor=none;spacingLeft=4;spacingRight=4;whiteSpace=wrap;overflow=hidden;rotatable=0;points=[[0,0.5],[1,0.5]];portConstraint=eastwest;" parent="t5zFvqTxYrGrfH3YHS5j-48" vertex="1">
                    <mxGeometry y="52" width="160" height="26" as="geometry"/>
                </mxCell>
                <mxCell id="t5zFvqTxYrGrfH3YHS5j-56" value="Intent" style="text;html=1;strokeColor=none;fillColor=none;spacingLeft=4;spacingRight=4;whiteSpace=wrap;overflow=hidden;rotatable=0;points=[[0,0.5],[1,0.5]];portConstraint=eastwest;" parent="t5zFvqTxYrGrfH3YHS5j-48" vertex="1">
                    <mxGeometry y="78" width="160" height="26" as="geometry"/>
                </mxCell>
                <mxCell id="t5zFvqTxYrGrfH3YHS5j-58" value="Intent Handler" style="swimlane;html=1;fontStyle=0;childLayout=stackLayout;horizontal=1;startSize=26;fillColor=none;horizontalStack=0;resizeParent=1;resizeLast=0;collapsible=1;marginBottom=0;swimlaneFillColor=none;align=center;rounded=1;shadow=0;comic=0;labelBackgroundColor=none;strokeWidth=1;fontFamily=Verdana;fontSize=12;strokeColor=#6c8ebf;" parent="1" vertex="1">
                    <mxGeometry x="560" y="530" width="160" height="80" as="geometry"/>
                </mxCell>
                <mxCell id="t5zFvqTxYrGrfH3YHS5j-59" value="Input intent" style="text;html=1;strokeColor=none;fillColor=none;spacingLeft=4;spacingRight=4;whiteSpace=wrap;overflow=hidden;rotatable=0;points=[[0,0.5],[1,0.5]];portConstraint=eastwest;" parent="t5zFvqTxYrGrfH3YHS5j-58" vertex="1">
                    <mxGeometry y="26" width="160" height="26" as="geometry"/>
                </mxCell>
                <mxCell id="t5zFvqTxYrGrfH3YHS5j-60" value="Wakeword" style="text;html=1;strokeColor=none;fillColor=none;spacingLeft=4;spacingRight=4;whiteSpace=wrap;overflow=hidden;rotatable=0;points=[[0,0.5],[1,0.5]];portConstraint=eastwest;" parent="t5zFvqTxYrGrfH3YHS5j-58" vertex="1">
                    <mxGeometry y="52" width="160" height="26" as="geometry"/>
                </mxCell>
                <mxCell id="t5zFvqTxYrGrfH3YHS5j-63" style="edgeStyle=orthogonalEdgeStyle;rounded=0;orthogonalLoop=1;jettySize=auto;html=1;entryX=0;entryY=0.5;entryDx=0;entryDy=0;exitX=0;exitY=0.5;exitDx=0;exitDy=0;" parent="1" source="t5zFvqTxYrGrfH3YHS5j-71" target="t5zFvqTxYrGrfH3YHS5j-59" edge="1">
                    <mxGeometry relative="1" as="geometry">
                        <mxPoint x="640" y="450" as="targetPoint"/>
                        <Array as="points">
                            <mxPoint x="490" y="390"/>
                            <mxPoint x="490" y="569"/>
                        </Array>
                    </mxGeometry>
                </mxCell>
                <mxCell id="t5zFvqTxYrGrfH3YHS5j-75" value="IO Expander" style="html=1;rounded=0;shadow=0;comic=0;labelBackgroundColor=none;strokeWidth=2;fontFamily=Verdana;fontSize=12;align=center;shape=mxgraph.ios7ui.horLines;" parent="1" vertex="1">
                    <mxGeometry x="60" y="770" width="135" height="50" as="geometry"/>
                </mxCell>
                <mxCell id="t5zFvqTxYrGrfH3YHS5j-77" style="edgeStyle=orthogonalEdgeStyle;rounded=0;orthogonalLoop=1;jettySize=auto;html=1;fontSize=16;" parent="1" source="t5zFvqTxYrGrfH3YHS5j-56" target="t5zFvqTxYrGrfH3YHS5j-46" edge="1">
                    <mxGeometry relative="1" as="geometry">
                        <Array as="points">
                            <mxPoint x="230" y="820"/>
                            <mxPoint x="230" y="875"/>
                        </Array>
                    </mxGeometry>
                </mxCell>
                <mxCell id="t5zFvqTxYrGrfH3YHS5j-79" style="edgeStyle=orthogonalEdgeStyle;rounded=0;orthogonalLoop=1;jettySize=auto;html=1;fontSize=16;" parent="1" source="t5zFvqTxYrGrfH3YHS5j-57" target="t5zFvqTxYrGrfH3YHS5j-46" edge="1">
                    <mxGeometry relative="1" as="geometry">
                        <mxPoint x="200" y="889" as="targetPoint"/>
                        <Array as="points">
                            <mxPoint x="230" y="920"/>
                            <mxPoint x="230" y="875"/>
                        </Array>
                    </mxGeometry>
                </mxCell>
                <mxCell id="t5zFvqTxYrGrfH3YHS5j-80" style="edgeStyle=orthogonalEdgeStyle;rounded=0;orthogonalLoop=1;jettySize=auto;html=1;fontSize=16;" parent="1" source="t5zFvqTxYrGrfH3YHS5j-50" target="t5zFvqTxYrGrfH3YHS5j-75" edge="1">
                    <mxGeometry relative="1" as="geometry"/>
                </mxCell>
                <mxCell id="t5zFvqTxYrGrfH3YHS5j-81" style="edgeStyle=orthogonalEdgeStyle;rounded=0;orthogonalLoop=1;jettySize=auto;html=1;entryX=1;entryY=0.784;entryDx=0;entryDy=0;entryPerimeter=0;fontSize=16;dashed=1;" parent="1" source="t5zFvqTxYrGrfH3YHS5j-49" target="t5zFvqTxYrGrfH3YHS5j-44" edge="1">
                    <mxGeometry relative="1" as="geometry"/>
                </mxCell>
                <mxCell id="t5zFvqTxYrGrfH3YHS5j-82" value="GPIO Wakeup Output" style="html=1;rounded=0;shadow=0;comic=0;labelBackgroundColor=none;strokeWidth=2;fontFamily=Verdana;fontSize=12;align=center;shape=mxgraph.ios7ui.horLines;" parent="1" vertex="1">
                    <mxGeometry x="60" y="540" width="135" height="50" as="geometry"/>
                </mxCell>
                <mxCell id="t5zFvqTxYrGrfH3YHS5j-93" style="edgeStyle=orthogonalEdgeStyle;rounded=0;orthogonalLoop=1;jettySize=auto;html=1;entryX=0.5;entryY=0;entryDx=0;entryDy=0;fontSize=16;" parent="1" source="t5zFvqTxYrGrfH3YHS5j-83" target="t5zFvqTxYrGrfH3YHS5j-58" edge="1">
                    <mxGeometry relative="1" as="geometry"/>
                </mxCell>
                <mxCell id="t5zFvqTxYrGrfH3YHS5j-83" value="GPIO Host Status Input" style="html=1;rounded=0;shadow=0;comic=0;labelBackgroundColor=none;strokeWidth=2;fontFamily=Verdana;fontSize=12;align=center;shape=mxgraph.ios7ui.horLines;" parent="1" vertex="1">
                    <mxGeometry x="60" y="460" width="135" height="50" as="geometry"/>
                </mxCell>
                <mxCell id="t5zFvqTxYrGrfH3YHS5j-91" style="edgeStyle=orthogonalEdgeStyle;rounded=0;orthogonalLoop=1;jettySize=auto;html=1;entryX=1;entryY=0.123;entryDx=0;entryDy=0;entryPerimeter=0;fontSize=16;" parent="1" source="t5zFvqTxYrGrfH3YHS5j-60" target="t5zFvqTxYrGrfH3YHS5j-48" edge="1">
                    <mxGeometry relative="1" as="geometry"/>
                </mxCell>
                <mxCell id="t5zFvqTxYrGrfH3YHS5j-92" style="edgeStyle=orthogonalEdgeStyle;rounded=0;orthogonalLoop=1;jettySize=auto;html=1;fontSize=16;" parent="1" source="t5zFvqTxYrGrfH3YHS5j-60" target="t5zFvqTxYrGrfH3YHS5j-82" edge="1">
                    <mxGeometry relative="1" as="geometry"/>
                </mxCell>
                <mxCell id="nTEOnzBcEbbtP1dxCWQs-1" value="&lt;font style=&quot;font-size: 20px;&quot;&gt;Tile 1&lt;/font&gt;" style="rounded=1;whiteSpace=wrap;html=1;fillColor=none;strokeColor=#b85450;" parent="1" vertex="1">
                    <mxGeometry x="190" y="10" width="120" height="60" as="geometry"/>
                </mxCell>
                <mxCell id="nTEOnzBcEbbtP1dxCWQs-2" value="&lt;font style=&quot;font-size: 20px;&quot;&gt;Tile 0&lt;br&gt;&lt;/font&gt;" style="rounded=1;whiteSpace=wrap;html=1;fillColor=none;strokeColor=#6c8ebf;" parent="1" vertex="1">
                    <mxGeometry x="60" y="10" width="120" height="60" as="geometry"/>
                </mxCell>
                <mxCell id="5tkIII6Xo1PpN1unlZkE-1" style="edgeStyle=orthogonalEdgeStyle;rounded=0;orthogonalLoop=1;jettySize=auto;html=1;entryX=1;entryY=0.25;entryDx=0;entryDy=0;" parent="1" source="t5zFvqTxYrGrfH3YHS5j-60" target="t5zFvqTxYrGrfH3YHS5j-41" edge="1">
                    <mxGeometry relative="1" as="geometry"/>
                </mxCell>
            </root>
        </mxGraphModel>
    </diagram>
    <diagram id="WfgidCORc7-GDsfIjNCi" name="Page-2">
        <mxGraphModel dx="1243" dy="859" grid="1" gridSize="10" guides="1" tooltips="1" connect="1" arrows="1" fold="1" page="1" pageScale="1" pageWidth="850" pageHeight="1100" math="0" shadow="0">
            <root>
                <mxCell id="hZ9x9trAxnD3nfclMyi9-0"/>
                <mxCell id="hZ9x9trAxnD3nfclMyi9-1" parent="hZ9x9trAxnD3nfclMyi9-0"/>
                <mxCell id="8o_znrg57WJRuIH5f7iA-9" value="" style="shape=umlLifeline;participant=umlActor;perimeter=lifelinePerimeter;whiteSpace=wrap;html=1;container=1;collapsible=0;recursiveResize=0;verticalAlign=top;spacingTop=36;outlineConnect=0;fillColor=none;" parent="hZ9x9trAxnD3nfclMyi9-1" vertex="1">
                    <mxGeometry x="940" y="30" width="20" height="490" as="geometry"/>
                </mxCell>
                <mxCell id="8o_znrg57WJRuIH5f7iA-10" value="Audio Pipeline" style="shape=umlLifeline;participant=umlEntity;perimeter=lifelinePerimeter;whiteSpace=wrap;html=1;container=1;collapsible=0;recursiveResize=0;verticalAlign=top;spacingTop=36;outlineConnect=0;fillColor=none;" parent="hZ9x9trAxnD3nfclMyi9-1" vertex="1">
                    <mxGeometry x="1005" y="30" width="40" height="490" as="geometry"/>
                </mxCell>
                <mxCell id="8o_znrg57WJRuIH5f7iA-14" value="" style="html=1;points=[];perimeter=orthogonalPerimeter;fillColor=none;" parent="8o_znrg57WJRuIH5f7iA-10" vertex="1">
                    <mxGeometry x="15" y="110" width="10" height="80" as="geometry"/>
                </mxCell>
                <mxCell id="8o_znrg57WJRuIH5f7iA-15" value="Speech" style="html=1;verticalAlign=bottom;startArrow=oval;endArrow=block;startSize=8;" parent="8o_znrg57WJRuIH5f7iA-10" target="8o_znrg57WJRuIH5f7iA-14" edge="1">
                    <mxGeometry relative="1" as="geometry">
                        <mxPoint x="-55" y="110" as="sourcePoint"/>
                    </mxGeometry>
                </mxCell>
                <mxCell id="8o_znrg57WJRuIH5f7iA-16" value="" style="shape=curlyBracket;whiteSpace=wrap;html=1;rounded=1;flipH=1;fillColor=none;" parent="hZ9x9trAxnD3nfclMyi9-1" vertex="1">
                    <mxGeometry x="1040" y="140" width="20" height="80" as="geometry"/>
                </mxCell>
                <mxCell id="8o_znrg57WJRuIH5f7iA-17" value="" style="curved=1;endArrow=classic;html=1;" parent="hZ9x9trAxnD3nfclMyi9-1" edge="1">
                    <mxGeometry width="50" height="50" relative="1" as="geometry">
                        <mxPoint x="1080" y="20" as="sourcePoint"/>
                        <mxPoint x="1070" y="180" as="targetPoint"/>
                        <Array as="points">
                            <mxPoint x="1080" y="120"/>
                            <mxPoint x="1110" y="150"/>
                            <mxPoint x="1090" y="180"/>
                        </Array>
                    </mxGeometry>
                </mxCell>
                <mxCell id="8o_znrg57WJRuIH5f7iA-18" value="&lt;div style=&quot;color: rgb(212 , 212 , 212) ; background-color: rgb(30 , 30 , 30) ; font-family: &amp;#34;cascadia code&amp;#34; , &amp;#34;meslolgm nf&amp;#34; , &amp;#34;consolas&amp;#34; , &amp;#34;courier new&amp;#34; , monospace , &amp;#34;consolas&amp;#34; , &amp;#34;courier new&amp;#34; , monospace ; font-size: 12px ; line-height: 16px&quot;&gt;&lt;span style=&quot;color: #569cd6&quot;&gt;appconfPOWER_FULL_HOLD_DURATION&lt;/span&gt;&lt;/div&gt;" style="edgeLabel;html=1;align=center;verticalAlign=middle;resizable=0;points=[];" parent="8o_znrg57WJRuIH5f7iA-17" vertex="1" connectable="0">
                    <mxGeometry x="-0.5473" y="2" relative="1" as="geometry">
                        <mxPoint y="-55" as="offset"/>
                    </mxGeometry>
                </mxCell>
                <mxCell id="shaoNnd97Ap8vqBVmgCs-5" value="" style="edgeStyle=none;html=1;entryX=0.011;entryY=0.578;entryDx=0;entryDy=0;entryPerimeter=0;" parent="hZ9x9trAxnD3nfclMyi9-1" target="shaoNnd97Ap8vqBVmgCs-3" edge="1">
                    <mxGeometry relative="1" as="geometry">
                        <mxPoint x="1290" y="149" as="sourcePoint"/>
                    </mxGeometry>
                </mxCell>
                <mxCell id="shaoNnd97Ap8vqBVmgCs-8" value="VNR Event" style="edgeLabel;html=1;align=center;verticalAlign=middle;resizable=0;points=[];" parent="shaoNnd97Ap8vqBVmgCs-5" vertex="1" connectable="0">
                    <mxGeometry x="-0.6229" y="-1" relative="1" as="geometry">
                        <mxPoint x="39" y="12" as="offset"/>
                    </mxGeometry>
                </mxCell>
                <mxCell id="shaoNnd97Ap8vqBVmgCs-0" value="Low Power" style="ellipse;whiteSpace=wrap;html=1;strokeWidth=2;fillWeight=2;hachureGap=8;fillColor=#B00909;fillStyle=hachure;sketch=1;fontStyle=1" parent="hZ9x9trAxnD3nfclMyi9-1" vertex="1">
                    <mxGeometry x="1180" y="80" width="115" height="110" as="geometry"/>
                </mxCell>
                <mxCell id="shaoNnd97Ap8vqBVmgCs-6" style="edgeStyle=none;html=1;entryX=0.934;entryY=0.267;entryDx=0;entryDy=0;exitX=0.366;exitY=0.981;exitDx=0;exitDy=0;entryPerimeter=0;exitPerimeter=0;" parent="hZ9x9trAxnD3nfclMyi9-1" source="shaoNnd97Ap8vqBVmgCs-3" target="shaoNnd97Ap8vqBVmgCs-4" edge="1">
                    <mxGeometry relative="1" as="geometry">
                        <mxPoint x="1380" y="210" as="sourcePoint"/>
                        <mxPoint x="1410" y="290" as="targetPoint"/>
                    </mxGeometry>
                </mxCell>
                <mxCell id="shaoNnd97Ap8vqBVmgCs-9" value="Wake Word&lt;br&gt;Detected" style="edgeLabel;html=1;align=center;verticalAlign=middle;resizable=0;points=[];" parent="shaoNnd97Ap8vqBVmgCs-6" vertex="1" connectable="0">
                    <mxGeometry x="-0.2111" y="1" relative="1" as="geometry">
                        <mxPoint x="31" y="14" as="offset"/>
                    </mxGeometry>
                </mxCell>
                <mxCell id="shaoNnd97Ap8vqBVmgCs-11" style="edgeStyle=none;html=1;exitX=0.035;exitY=0.332;exitDx=0;exitDy=0;exitPerimeter=0;" parent="hZ9x9trAxnD3nfclMyi9-1" source="shaoNnd97Ap8vqBVmgCs-3" edge="1">
                    <mxGeometry relative="1" as="geometry">
                        <mxPoint x="1380" y="135" as="sourcePoint"/>
                        <mxPoint x="1290" y="120" as="targetPoint"/>
                    </mxGeometry>
                </mxCell>
                <mxCell id="shaoNnd97Ap8vqBVmgCs-13" value="Full Power&lt;br&gt;Timeout" style="edgeLabel;html=1;align=center;verticalAlign=middle;resizable=0;points=[];" parent="shaoNnd97Ap8vqBVmgCs-11" vertex="1" connectable="0">
                    <mxGeometry x="-0.323" y="-1" relative="1" as="geometry">
                        <mxPoint x="-15" y="-21" as="offset"/>
                    </mxGeometry>
                </mxCell>
                <mxCell id="shaoNnd97Ap8vqBVmgCs-3" value="Waiting&lt;br&gt;For &lt;br&gt;Wake Word" style="ellipse;whiteSpace=wrap;html=1;strokeWidth=2;fillWeight=2;hachureGap=8;fillColor=#009900;fillStyle=hachure;sketch=1;fontStyle=1" parent="hZ9x9trAxnD3nfclMyi9-1" vertex="1">
                    <mxGeometry x="1400" y="80" width="115" height="120" as="geometry"/>
                </mxCell>
                <mxCell id="shaoNnd97Ap8vqBVmgCs-7" style="edgeStyle=none;html=1;entryX=0.139;entryY=0.838;entryDx=0;entryDy=0;entryPerimeter=0;exitX=0.696;exitY=0.083;exitDx=0;exitDy=0;exitPerimeter=0;" parent="hZ9x9trAxnD3nfclMyi9-1" source="shaoNnd97Ap8vqBVmgCs-4" target="shaoNnd97Ap8vqBVmgCs-3" edge="1">
                    <mxGeometry relative="1" as="geometry">
                        <mxPoint x="1340" y="260" as="sourcePoint"/>
                        <mxPoint x="1360" y="200" as="targetPoint"/>
                        <Array as="points"/>
                    </mxGeometry>
                </mxCell>
                <mxCell id="shaoNnd97Ap8vqBVmgCs-10" value="Intent&lt;br&gt;Timeout" style="edgeLabel;html=1;align=center;verticalAlign=middle;resizable=0;points=[];" parent="shaoNnd97Ap8vqBVmgCs-7" vertex="1" connectable="0">
                    <mxGeometry x="0.3348" y="2" relative="1" as="geometry">
                        <mxPoint x="-46" y="11" as="offset"/>
                    </mxGeometry>
                </mxCell>
                <mxCell id="shaoNnd97Ap8vqBVmgCs-4" value="Listening&lt;br&gt;For&lt;br&gt;Commands" style="ellipse;whiteSpace=wrap;html=1;strokeWidth=2;fillWeight=2;hachureGap=8;fillColor=#FF8000;fillStyle=hachure;sketch=1;fontStyle=1" parent="hZ9x9trAxnD3nfclMyi9-1" vertex="1">
                    <mxGeometry x="1250" y="260" width="115" height="120" as="geometry"/>
                </mxCell>
                <mxCell id="shaoNnd97Ap8vqBVmgCs-15" value="" style="shape=process;whiteSpace=wrap;html=1;backgroundOutline=1;fillStyle=hachure;fillColor=#FF8000;" parent="hZ9x9trAxnD3nfclMyi9-1" vertex="1">
                    <mxGeometry x="1155" y="460" width="120" height="60" as="geometry"/>
                </mxCell>
                <mxCell id="0ywq6NsOq0W1842fo3YN-0" value="Add figures for:&lt;br&gt;Ring buffer behavior&lt;br&gt;Timing behavior" style="text;html=1;align=center;verticalAlign=middle;resizable=0;points=[];autosize=1;strokeColor=none;fillColor=none;" vertex="1" parent="hZ9x9trAxnD3nfclMyi9-1">
                    <mxGeometry x="1150" y="535" width="120" height="50" as="geometry"/>
                </mxCell>
            </root>
        </mxGraphModel>
    </diagram>
</mxfile>